			<svg xmlns="http://www.w3.org/2000/svg" xmlns:xlink="http://www.w3.org/1999/xlink" version="1.1" x="0px" y="0px" width="66.907px" height="67.603px" viewBox="0 0 66.907 67.603" enable-background="new 0 0 66.907 67.603" xml:space="preserve">
      			<path fill="#231F20" d="M23.641 16.863h-5.666V1.587h5.666c4.215 0 7.637 3.42 7.637 7.637C31.277 13.442 27.855 16.863 23.641 16.863M60.039 14.545l0.004-0.008L49.086 0.125c-0.112-0.139-0.305-0.163-0.463-0.069 -0.227 0.133-0.096 0.49-0.101 0.492 1.181 2.883 1.844 6.036 1.844 9.343 0 13.642-11.059 24.701-24.7 24.701H17.96v15.937H0l16.541 17.074h17.43c18.188 0 32.937-14.748 32.937-32.938C66.907 27.088 64.339 20.111 60.039 14.545"/>
			</svg>