<svg xmlns="http://www.w3.org/2000/svg" xmlns:xlink="http://www.w3.org/1999/xlink" version="1.1" x="0px" y="0px" width="26px" height="127.867px" viewBox="0 0 26 127.867" enable-background="new 0 0 26 127.867" xml:space="preserve">
    		<path id="XMLID_40_" d="M5.339 118.708c-0.064-3.072 0.14-3-2.665-2.93 -1.386 0.037-1.903-0.365-2.079-1.443 -0.19-1.162 0.202-1.695 1.384-1.801 0.472-0.043 0.952 0.01 1.428 0.016 0.415 0.004 0.83 0 1.392 0 0.043-0.779 0.089-1.449 0.115-2.119 0.028-0.74-0.001-1.482 0.066-2.217 0.122-1.324 0.782-1.77 2.037-1.426 0.255 0.068 0.499 0.178 0.753 0.25 2.742 0.773 2.062 0.596 2.568 3.105 0.083 0.414-0.095 0.932-0.281 1.34 -0.552 1.211-0.455 1.469 0.805 1.693 0.202 0.035 0.415 0.006 0.839 0.006 -0.041-0.641-0.061-1.24-0.122-1.836 -0.127-1.242 0.18-1.834 1.136-2.139 0.875-0.277 2.651 0.152 2.881 1.08 0.164 0.666 0.438 1.307 0.582 1.977 0.205 0.949 0.8 1.375 1.695 1.641 0.952 0.285 1.864 0.719 2.769 1.143 0.323 0.152 0.615 0.43 0.843 0.713 0.574 0.711 0.261 1.523-0.657 1.605 -0.881 0.078-1.775 0.018-2.863 0.018 0.213 1.234 0.359 2.316 0.607 3.375 0.07 0.301 0.396 0.607 0.683 0.773 0.501 0.287 1.076 0.441 1.597 0.699 0.467 0.23 0.927 0.49 1.343 0.801 0.471 0.354 0.673 0.918 0.369 1.406 -0.213 0.342-0.688 0.613-1.096 0.715 -0.442 0.107-0.942-0.008-1.416-0.045 -0.574-0.043-1.147-0.105-1.84-0.172 -0.228 0.576-0.446 1.1-0.64 1.631 -0.34 0.928-1.058 1.273-1.979 1.297 -0.977 0.025-1.511-0.348-1.885-1.359 -0.163-0.441-0.366-0.93-0.321-1.375 0.162-1.613-0.403-1.848-2.068-1.92 -0.055 0.383-0.135 0.775-0.164 1.17 -0.07 0.93-0.425 1.639-1.395 1.889 -1.011 0.262-1.932 0.053-2.537-0.809 -0.412-0.588-0.745-1.281-0.916-1.975 -0.335-1.361-0.335-1.457-1.71-1.619 -0.681-0.082-1.373-0.049-2.061-0.082 -1.335-0.062-2.469-1.104-2.533-2.373 -0.033-0.635 0.365-0.998 0.978-1.002 0.845-0.006 1.691 0.062 2.535 0.119C4.085 118.566 4.653 118.638 5.339 118.708zM10.55 116.636c-0.073 3.322 0.527 3.701 2.539 3.457C13.248 116.935 13.019 116.609 10.55 116.636z"/>
      <path id="XMLID_39_" d="M9.806 1.515C9.635 3.021 9.429 4.379 9.338 5.744 9.19 7.951 9.672 8.503 12.103 9.045c0.684-1.189 0.637-2.483 0.465-3.79 -0.14-1.048-0.4-2.091-0.422-3.141 -0.031-1.512 0.244-2.434 2.258-2.012 4.438 0.93 7.721 3.315 9.563 7.51 0.659 1.5 1.187 3.058 1.779 4.586 0.259 0.666 0.431 1.381-0.054 1.957 -0.592 0.702-1.461 0.601-2.22 0.341 -1.525-0.525-2.287-1.749-2.746-3.227 -0.453-1.46-0.882-2.935-1.47-4.341 -0.329-0.786-0.959-1.446-1.453-2.162 -0.123 0.052-0.245 0.104-0.368 0.157 0.045 0.374 0.042 0.762 0.144 1.121 0.521 1.833 0.437 3.668 0.061 5.503 -0.493 2.401-1.976 3.161-4.205 2.109 -2.152-1.016-4.254-2.142-6.414-3.142 -1.167-0.54-1.73-1.49-1.72-2.627 0.022-2.267 0.212-4.535 0.404-6.796 0.06-0.7 0.621-0.947 1.441-0.799 0.312 0.056 0.636 0.114 0.916 0.251C8.626 0.82 9.163 1.152 9.806 1.515z"/>
      <path id="XMLID_36_" d="M7.24 86.541c0.024 1.35-0.072 2.418-1.339 2.824 -1.054 0.34-2.043-0.133-2.885-1.432 -1.543-2.377-1.401-4.803-0.053-7.211 0.697-1.244 1.423-2.473 2.168-3.688 0.33-0.537 0.707-1.053 1.124-1.525 0.684-0.773 1.55-1.045 2.582-0.822 3.118 0.67 5.61 2.279 7.692 4.707 1.952 2.277 3.605 4.818 5.942 6.768 0.908 0.758 0.768 1.029-0.087 1.854 -1.011 0.977-2.023 1.041-3.329 0.643 -1.194-0.361-2.51-0.305-3.752-0.535 -2.185-0.404-4.353-0.891-6.53-1.336C8.322 86.695 7.862 86.64 7.24 86.541zM6.673 83.23c2.118 0.449 3.9 0.846 5.69 1.199 0.877 0.172 1.767 0.307 2.657 0.375 0.438 0.035 1.004 0.049 1.011-0.658 -1.964-2.709-4.483-5.1-6.279-5.865C8.81 79.796 7.85 81.339 6.673 83.23z"/>
      <path id="XMLID_35_" d="M12.503 68.453c0-1.982 0.005-3.764-0.002-5.546 -0.003-0.793-0.095-1.593-0.03-2.38 0.106-1.286 0.464-1.56 1.713-1.506 1.936 0.083 2.742 0.818 2.94 2.791 0.168 1.684 0.26 3.375 0.394 5.063 0.048 0.619 0.12 1.234 0.196 1.998 0.611-0.066 1.087-0.049 1.52-0.178 1.713-0.51 3.123 0.174 4.431 1.127 0.949 0.693 0.748 1.764-0.381 2.168 -0.538 0.193-1.126 0.279-1.699 0.332 -1.992 0.186-4.013-0.293-5.997 0.297 -0.356 0.107-0.915-0.002-1.21-0.23 -1.172-0.912-2.569-0.887-3.915-1.068 -1.781-0.24-3.57-0.432-5.355-0.645 -1.419-0.172-2.163-0.881-2.443-2.299 -0.214-1.09-0.419-2.182-0.672-3.262 -0.558-2.374-0.355-4.741 0.081-7.089 0.275-1.478 0.903-1.815 2.395-1.54 2.234 0.412 2.23 0.411 1.8 2.691 -0.504 2.668 0.016 5.268 0.559 7.864 0.105 0.506 0.379 0.855 0.948 0.912C9.333 68.109 10.892 68.281 12.503 68.453z"/>
      <path id="XMLID_34_" d="M18.378 48.4c0.118-3.409-2.109-5.677-2.521-8.598 0.371-0.119 0.748-0.384 1.02-0.302 0.845 0.258 1.667 0.61 2.461 1.003 0.312 0.155 0.571 0.481 0.775 0.783 1.303 1.92 2.602 3.833 3.334 6.078 0.354 1.084 0.162 2.099-0.08 3.118 -0.221 0.929-1 1.319-1.856 1.538 -1.749 0.444-3.411 0.063-4.851-0.89 -2.022-1.339-3.922-2.861-5.879-4.3 -0.284-0.209-0.589-0.391-1.179-0.778 0.168 1.015 0.261 1.724 0.408 2.422 0.13 0.62 0.354 1.221 0.475 1.843 0.214 1.093-0.122 1.968-0.846 2.346 -0.885 0.462-2.114 0.354-2.802-0.369 -0.386-0.404-0.714-0.935-0.878-1.467 -0.841-2.713-1.163-5.476-0.606-8.3 0.288-1.46 0.648-1.747 2.172-1.578 0.681 0.076 1.36 0.182 2.029 0.328 0.291 0.063 0.595 0.215 0.818 0.411 1.901 1.67 3.772 3.377 5.685 5.036C16.679 47.266 17.396 47.697 18.378 48.4z"/>
      <path id="XMLID_33_" d="M3.937 91.443c0.188 1.252 0.297 2.355 0.528 3.432 0.31 1.439 1.096 2.633 2.184 3.611 0.947 0.854 1.304 0.861 2.069-0.109 0.784-0.992 1.521-2.033 2.175-3.115 1.275-2.117 2.641-2.73 5.04-2.117 1.383 0.355 2.835 0.621 3.94 1.582 1.875 1.627 3.233 3.646 3.72 6.105 0.14 0.703-0.149 1.561-0.446 2.262 -0.332 0.785-1.169 0.568-1.837 0.543 -0.788-0.029-1.461-0.357-1.768-1.117 -0.192-0.477-0.223-1.02-0.333-1.531 -0.325-1.514-0.784-2.975-1.952-4.076 -0.895-0.846-1.248-0.805-2.034 0.16 -0.769 0.943-1.504 1.916-2.3 2.836 -2.543 2.941-5.77 3.158-8.396 1.471 -2.066-1.326-3.358-3.352-3.766-5.84 -0.136-0.832-0.285-1.676-0.28-2.514 0.009-1.398 0.395-2.172 1.986-1.836C2.93 91.287 3.399 91.351 3.937 91.443z"/>
      <path id="XMLID_30_" d="M16.521 36.479c-3.016 0.09-5.554-1.242-7.939-3.021 -0.788-0.588-1.662-1.067-2.518-1.56 -1.226-0.706-1.341-2.862-0.19-3.736 0.293-0.222 0.595-0.45 0.825-0.731 2.146-2.621 4.427-3.261 7.331-1.869 2.774 1.33 4.984 3.373 6.778 5.862 0.245 0.34 0.432 0.73 0.596 1.119 0.542 1.28 0.259 2.205-0.879 3.031C19.339 36.435 17.994 36.587 16.521 36.479zM9.47 29.483c1.072 1.413 2.351 2.345 3.67 3.188 0.43 0.274 1.125 0.269 1.672 0.194 0.934-0.127 1.211-0.616 1.081-1.57 -0.331-2.444-3.099-3.843-5.237-2.638C10.297 28.859 9.976 29.127 9.47 29.483z"/>
      <path id="XMLID_29_" d="M6.168 17.226c3.813 0.397 7.384 0.776 10.957 1.138 1.044 0.105 2.098 0.126 3.14 0.246 1.618 0.186 3.042 0.855 4.214 1.976 0.695 0.664 0.415 1.558-0.546 1.779 -0.503 0.115-1.055 0.103-1.573 0.042 -2.203-0.256-4.401-0.554-6.603-0.832 -3.038-0.384-6.078-0.763-9.117-1.145 -0.21-0.026-0.426-0.026-0.628-0.079 -1.039-0.274-1.559-1.116-1.353-2.169C4.799 17.469 5.303 17.197 6.168 17.226z"/>
		</svg>