<svg xmlns="http://www.w3.org/2000/svg" version="1.1" x="0px" y="0px" width="236.395px" height="181.729px" viewBox="0 0 236.395 181.729" enable-background="new 0 0 236.395 181.729" xml:space="preserve" class="svg-content">
      				<path fill="#231F20" d="M236.395 132.025h-11.823v48.951h11.823V132.025zM207.4 171.486c-0.754 1.357-2.786 2.26-4.971 2.26 -2.335 0-4.669-0.979-4.669-3.312 0-2.259 2.334-3.24 4.669-3.24 2.185 0 4.217 0.905 4.971 2.336V171.486zM218.771 180.977v-20.787c0-8.811-5.497-13.932-15.137-13.932 -8.736 0-14.535 5.197-15.514 11.749h11.146c0.527-1.507 1.808-2.485 3.992-2.485 2.861 0 4.142 1.883 4.142 4.067v2.183c-1.355-0.979-4.67-1.881-7.456-1.881 -7.38 0-13.028 4.216-13.028 10.768 0 7.155 5.648 10.922 12.351 10.922 3.615 0 7.004-1.206 8.134-2.336v1.732H218.771zM174.265 180.977l12.953-33.891H175.62l-6.327 19.431 -6.476-19.431h-12.049l12.877 33.891H174.265zM147.831 137.899c0-3.917-3.088-6.401-6.703-6.401 -3.614 0-6.702 2.484-6.702 6.401 0 3.841 3.088 6.325 6.702 6.325C144.743 144.225 147.831 141.74 147.831 137.899M147.003 147.086H135.18v33.891h11.823V147.086zM110.704 169.304c0 8.584 4.519 12.351 12.501 12.351 2.636 0 5.197-0.452 6.553-1.056v-10.015c-1.055 0.45-2.486 0.752-3.767 0.752 -2.334 0-3.614-1.129-3.614-3.765v-11.297h7.079v-9.188h-7.079v-9.337h-11.673v9.337h-4.971v9.188h4.971V169.304zM73.276 170.508c1.054 7.306 7.305 11.221 15.966 11.221 8.284 0 14.836-3.991 14.836-11.221 0-5.497-3.314-8.736-9.489-10.167l-6.703-1.58c-1.581-0.302-2.335-0.83-2.335-1.883 0-1.508 1.431-2.259 3.163-2.259 2.712 0 3.766 1.279 4.143 2.711h10.92c-1.054-6.703-6.101-10.996-15.363-10.996 -7.983 0-14.46 4.217-14.46 11.446 0 5.95 3.69 8.662 9.339 9.866l6.627 1.356c1.657 0.376 2.636 0.827 2.636 2.108 0 1.581-1.506 2.335-3.464 2.335 -2.109 0-3.765-1.056-4.293-2.938H73.276zM54.224 155.521c2.937 0 4.669 2.107 4.819 4.896H48.801C49.554 157.254 51.437 155.521 54.224 155.521M59.42 169.153c-0.679 2.333-2.561 3.389-4.972 3.389 -3.388 0-5.496-2.185-5.873-6.251H70.49v-2.938c0-10.092-5.874-17.02-16.267-17.02 -9.791 0-17.021 7.229-17.021 17.698 0 10.544 6.853 17.696 17.245 17.696 8.812 0 14.686-4.743 15.892-12.575H59.42zM14.534 180.977v-16.343h18.903v-10.242H14.534v-9.187h20.561v-10.469H2.561v46.24H14.534z"/>
      				<path fill="#231F20" d="M172.308 112.175h11.823V91.689c0.604-2.334 2.561-3.689 4.896-3.689 3.013 0 4.443 2.033 4.443 4.819v19.355h11.748V89.959c0-7.532-4.442-12.427-11.975-12.427 -3.916 0-7.229 1.582-9.112 3.69v-2.938h-11.823V112.175zM155.062 98.469c-0.904 1.581-2.786 2.861-5.121 2.861 -3.916 0-6.251-2.938-6.251-7.23 0-4.217 2.335-7.229 6.251-7.229 2.335 0 4.217 1.356 5.121 2.862V98.469zM155.062 109.84c0 4.443-2.26 6.401-5.949 6.401 -2.862 0-4.669-1.204-5.348-3.614h-11.371c1.205 7.832 7.682 12.275 16.719 12.275 10.316 0 17.622-5.724 17.622-17.623V78.284h-11.673v2.561c-1.506-1.807-4.293-3.312-8.058-3.312 -9.489 0-14.987 7.304-14.987 16.567 0 9.339 5.498 16.645 14.987 16.645 3.765 0 6.552-1.582 8.058-3.314V109.84zM128.779 69.098c0-3.917-3.087-6.401-6.703-6.401 -3.614 0-6.702 2.484-6.702 6.401 0 3.841 3.088 6.324 6.702 6.324C125.692 75.422 128.779 72.938 128.779 69.098M127.951 78.284h-11.823v33.891h11.823V78.284zM81.184 101.706c1.054 7.306 7.305 11.221 15.966 11.221 8.284 0 14.836-3.991 14.836-11.221 0-5.497-3.314-8.736-9.489-10.167l-6.702-1.58c-1.582-0.302-2.335-0.83-2.335-1.883 0-1.508 1.431-2.26 3.163-2.26 2.711 0 3.765 1.28 4.142 2.712h10.92c-1.054-6.703-6.1-10.996-15.363-10.996 -7.982 0-14.459 4.217-14.459 11.446 0 5.951 3.689 8.662 9.338 9.865l6.628 1.357c1.656 0.375 2.635 0.828 2.635 2.107 0 1.582-1.506 2.336-3.463 2.336 -2.109 0-3.766-1.055-4.293-2.938H81.184zM62.733 86.719c2.936 0 4.668 2.109 4.819 4.896H57.311C58.063 88.451 59.945 86.719 62.733 86.719M67.929 100.352c-0.678 2.333-2.561 3.389-4.971 3.389 -3.389 0-5.497-2.185-5.874-6.251H79v-2.938c0-10.092-5.874-17.02-16.267-17.02 -9.792 0-17.021 7.229-17.021 17.698 0 10.543 6.854 17.696 17.246 17.696 8.811 0 14.686-4.743 15.892-12.575H67.929zM2.561 112.175h17.472c14.535 0 23.347-9.038 23.347-23.12s-8.812-23.12-23.347-23.12H2.561V112.175zM14.46 101.706V76.327h4.971c7.681 0 11.974 4.896 11.974 12.728 0 7.756-4.293 12.651-11.974 12.651H14.46z"/>
      				<path fill="#231F20" d="M202.654 23.496c2.938 0 4.67 2.11 4.82 4.896h-10.242C197.985 25.229 199.868 23.496 202.654 23.496M207.851 37.128c-0.677 2.334-2.561 3.389-4.97 3.389 -3.389 0-5.498-2.185-5.875-6.25h21.916v-2.938c0-10.091-5.874-17.019-16.268-17.019 -9.789 0-17.02 7.229-17.02 17.697 0 10.544 6.854 17.696 17.246 17.696 8.812 0 14.686-4.743 15.89-12.575H207.851zM181.041 0h-11.823v48.951h11.823V0zM144.743 37.279c0 8.584 4.519 12.35 12.502 12.35 2.636 0 5.195-0.452 6.552-1.055V38.56c-1.055 0.45-2.485 0.751-3.766 0.751 -2.335 0-3.614-1.129-3.614-3.764V24.25h7.078v-9.189h-7.078V5.724h-11.674v9.337h-4.971v9.189h4.971V37.279zM117.782 37.279c0 8.584 4.52 12.35 12.502 12.35 2.636 0 5.196-0.452 6.552-1.055V38.56c-1.054 0.45-2.484 0.751-3.765 0.751 -2.335 0-3.615-1.129-3.615-3.764V24.25h7.08v-9.189h-7.08V5.724h-11.674v9.337h-4.97v9.189h4.97V37.279zM98.278 39.462c-0.754 1.356-2.787 2.259-4.971 2.259 -2.335 0-4.67-0.979-4.67-3.312 0-2.259 2.335-3.239 4.67-3.239 2.184 0 4.217 0.904 4.971 2.335V39.462zM109.649 48.951V28.167c0-8.813-5.497-13.934-15.137-13.934 -8.736 0-14.536 5.196-15.515 11.749h11.146c0.527-1.508 1.808-2.486 3.991-2.486 2.862 0 4.143 1.883 4.143 4.067v2.185c-1.356-0.98-4.67-1.883-7.457-1.883 -7.38 0-13.028 4.217-13.028 10.769 0 7.154 5.648 10.921 12.352 10.921 3.614 0 7.004-1.206 8.134-2.335v1.731H109.649zM58.44 23.496c2.936 0 4.668 2.11 4.819 4.896H53.018C53.771 25.229 55.652 23.496 58.44 23.496M63.637 37.128c-0.679 2.334-2.562 3.389-4.972 3.389 -3.389 0-5.496-2.185-5.873-6.25h21.915v-2.938c0-10.091-5.874-17.019-16.267-17.019 -9.791 0-17.021 7.229-17.021 17.697 0 10.544 6.854 17.696 17.246 17.696 8.812 0 14.686-4.743 15.892-12.575H63.637zM0 35.245c1.657 9.112 9.188 14.458 20.259 14.458 10.091 0 18.073-5.422 18.073-14.91 0-7.154-4.367-11.447-12.275-13.329l-9.036-2.11c-2.41-0.526-3.841-1.656-3.841-3.689 0-2.561 2.334-4.066 5.799-4.066 3.991 0 6.1 1.958 7.078 4.519h11.824c-1.28-7.983-7.682-14.159-18.978-14.159C8.66 1.957 1.13 7.908 1.13 16.944c0 7.832 5.12 11.373 11.899 12.878l8.886 1.884c2.938 0.677 4.369 1.656 4.369 3.841 0 2.861-2.561 4.443-6.252 4.443 -3.766 0-6.477-1.582-7.455-4.745H0z"/>
				</svg>